# xmcd
#
# Track frame offsets: 
#        150
#        15388
#        30383
#        42018
#        55712
#        67426
#        82076
#        94336
#        108211
#        122101
#
# Disc length: 1797 seconds
#
# Revision: 0
# Processed by: cddbd v1.5.2PL0 Copyright (c) Steve Scherf et al.
# Submitted via: ExactAudioCopy v1.3
#
DISCID=7d07030a
DTITLE=Lacy J. Dalton - American Legend
DYEAR=2008
DGENRE=Country
TTITLE0=Takin' It Easy
TTITLE1=Everybody Makes Mistakes
TTITLE2=Hard Times
TTITLE3=16th Avenue
TTITLE4=Hillbilly Girl With The Blues
TTITLE5=Working Class Man
TTITLE6=Dream Baby (How Long Must I Dream)
TTITLE7=Whisper
TTITLE8=Tennessee Waltz
TTITLE9=Crazy Blue Eyes
EXTD=
EXTT0=
EXTT1=
EXTT2=
EXTT3=
EXTT4=
EXTT5=
EXTT6=
EXTT7=
EXTT8=
EXTT9=
PLAYORDER=
